<svg width="100" height="100" viewBox="0 0 100 100" fill="none" xmlns="http://www.w3.org/2000/svg">
<g id="bitnami">
<g id="bitnami_2" clip-path="url(#clip0_790_3941)">
<path id="Union" d="M60.6689 43.9701L49.876 37.7399L39.0832 43.9707L39.083 56.4354L49.876 62.6685L60.6689 56.4354L60.6689 43.9701Z" fill="white"/>
<path id="Union_2" d="M39.0669 5.34024L44.9035 1.97053C46.4143 1.09323 48.1297 0.629768 49.8768 0.626862C51.6275 0.630216 53.3462 1.09592 54.8591 1.97686L89.2134 21.8114C90.8554 22.7591 92.1032 24.0167 92.9398 25.5362C93.756 27.0193 94.1803 28.7501 94.1803 30.6909V70.1487C94.1803 73.8783 92.4923 76.8114 89.2909 78.6592L54.9965 98.46C51.6683 100.381 48.0662 100.372 44.719 98.4388C38.6974 94.963 32.6765 91.4866 26.6556 88.0103L26.5555 87.9525C21.2064 84.8639 15.8573 81.7754 10.5078 78.6874C9.07692 77.8607 7.78476 76.5897 6.87914 74.9913C6.07069 73.5625 5.57031 71.8747 5.57031 69.9986V28.9423C5.57031 25.3352 7.27172 23.5141 10.4576 21.6747L24.1583 13.7627V65.062L24.1578 65.1057L49.8761 79.9529L75.5916 65.1057V35.5064L75.5915 35.4107L49.876 20.5656L39.0669 26.8057V5.34024Z" fill="white"/>
</g>
</g>
<defs>
<clipPath id="clip0_790_3941">
<rect width="89.4366" height="100" fill="white" transform="translate(5)"/>
</clipPath>
</defs>
</svg>
