<svg width="100" height="100" viewBox="0 0 100 100" fill="none" xmlns="http://www.w3.org/2000/svg">
<g id="algorand">
<g id="algorand_2" clip-path="url(#clip0_790_3660)">
<g id="Vector" filter="url(#filter0_d_790_3660)">
<path d="M50 93.7499C75.8884 93.7499 96.875 72.7633 96.875 46.8749C96.875 20.9866 75.8884 -5.34058e-05 50 -5.34058e-05C24.1117 -5.34058e-05 3.125 20.9866 3.125 46.8749C3.125 72.7633 24.1117 93.7499 50 93.7499Z" fill="black"/>
</g>
<path id="Vector_2" d="M50 93.7499C75.8884 93.7499 96.875 72.7633 96.875 46.8749C96.875 20.9866 75.8884 -5.34058e-05 50 -5.34058e-05C24.1117 -5.34058e-05 3.125 20.9866 3.125 46.8749C3.125 72.7633 24.1117 93.7499 50 93.7499Z" fill="#E5E5E5"/>
<path id="Vector_3" style="mix-blend-mode:soft-light" d="M50 93.7499C75.8884 93.7499 96.875 72.7633 96.875 46.8749C96.875 20.9866 75.8884 -5.34058e-05 50 -5.34058e-05C24.1117 -5.34058e-05 3.125 20.9866 3.125 46.8749C3.125 72.7633 24.1117 93.7499 50 93.7499Z" fill="url(#paint0_linear_790_3660)"/>
<path id="Vector_4" d="M50 92.1874C75.0254 92.1874 95.3125 71.9004 95.3125 46.8749C95.3125 21.8495 75.0254 1.56245 50 1.56245C24.9746 1.56245 4.6875 21.8495 4.6875 46.8749C4.6875 71.9004 24.9746 92.1874 50 92.1874Z" stroke="black" stroke-opacity="0.097" stroke-width="3.125"/>
<path id="Vector_5" d="M32.2871 71.8749L54.8534 32.4944L57.9508 42.6714L40.6941 71.8749H49.5437L60.6056 52.8484L65.4729 71.8749H73.4375L65.9154 43.5564L71.2251 34.2643H63.2605L60.1632 21.8749H52.641L23.4375 71.8749H32.2871Z" fill="black"/>
</g>
</g>
<defs>
<filter id="filter0_d_790_3660" x="0" y="-1.56255" width="100" height="100" filterUnits="userSpaceOnUse" color-interpolation-filters="sRGB">
<feFlood flood-opacity="0" result="BackgroundImageFix"/>
<feColorMatrix in="SourceAlpha" type="matrix" values="0 0 0 0 0 0 0 0 0 0 0 0 0 0 0 0 0 0 127 0" result="hardAlpha"/>
<feOffset dy="1.5625"/>
<feGaussianBlur stdDeviation="1.5625"/>
<feComposite in2="hardAlpha" operator="out"/>
<feColorMatrix type="matrix" values="0 0 0 0 0 0 0 0 0 0 0 0 0 0 0 0 0 0 0.199474 0"/>
<feBlend mode="normal" in2="BackgroundImageFix" result="effect1_dropShadow_790_3660"/>
<feBlend mode="normal" in="SourceGraphic" in2="effect1_dropShadow_790_3660" result="shape"/>
</filter>
<linearGradient id="paint0_linear_790_3660" x1="50" y1="-5.34058e-05" x2="50" y2="93.7499" gradientUnits="userSpaceOnUse">
<stop stop-color="white" stop-opacity="0.5"/>
<stop offset="1" stop-opacity="0.5"/>
</linearGradient>
<clipPath id="clip0_790_3660">
<rect width="100" height="100" fill="white"/>
</clipPath>
</defs>
</svg>
