<svg width="100" height="100" viewBox="0 0 100 100" fill="none" xmlns="http://www.w3.org/2000/svg">
<g id="arc">
<path id="Vector" d="M48.2941 7.00383C53.6988 7.1593 58.58 10.332 60.9191 15.2417L70.2007 34.7667L70.35 34.3894C70.7186 33.4162 71.0207 32.4191 71.2542 31.405L71.3839 30.8003C72.948 22.98 80.5492 17.9187 88.3839 19.4659C90.2448 19.8377 92.0142 20.5724 93.591 21.6281C95.1679 22.6838 96.5213 24.0399 97.5739 25.6188C98.6266 27.1977 99.3578 28.9685 99.7259 30.8301C100.094 32.6917 100.092 34.6076 99.7191 36.4683C97.6343 46.8792 92.2601 56.5413 84.5515 64.196L84.3074 64.4331L87.5613 71.2745C91.3378 79.2159 87.4249 88.8148 79.2019 91.5085L78.8308 91.6245L78.5476 91.7101C77.2894 92.0643 75.9887 92.2448 74.6816 92.2464C71.949 92.2466 69.2724 91.4723 66.9618 90.0134C64.6513 88.5545 62.8015 86.4707 61.6269 84.0034L59.1152 78.723L58.4816 78.88C55.0863 79.6824 51.6425 80.1269 48.1972 80.1952L47.2578 80.2046C43.9421 80.2046 40.5718 79.8191 37.2046 79.0718L36.5406 78.9171L34.1277 83.9902C32.5008 87.4109 29.595 90.0556 26.0367 91.3542L25.607 91.5034C23.7537 92.1146 21.7957 92.3437 19.8513 92.1769C17.907 92.0101 16.0167 91.451 14.2945 90.5331C7.4351 86.887 4.81948 78.3511 8.16635 71.3007L11.1624 65.0003L10.9007 64.7464C6.79331 60.6945 3.53706 56.089 1.3769 51.1382L1.08901 50.4613L1.0476 50.3515C-1.92544 42.9593 1.64487 34.5448 9.03237 31.5538C14.8269 29.2081 21.2503 30.8925 25.2003 35.2952L25.2746 35.3804L34.8238 15.2937C35.9559 12.8742 37.7387 10.8173 39.9729 9.3532C42.2072 7.88905 44.8047 7.07533 47.4749 7.00305L47.8792 6.99915L48.2941 7.00383Z" fill="white"/>
<path id="Vector_2" d="M34.0307 73.423L42.5838 55.4277C36.051 54.0402 29.478 49.9991 25.7604 45.0831L16.8167 63.8859C21.7866 68.1019 27.7538 71.4159 34.0307 73.423Z" fill="#1A007F"/>
<path id="Vector_3" d="M69.7249 44.5441C65.428 49.8109 59.4612 53.7171 53.0764 55.239L61.6026 73.1804C67.8256 71.0788 73.6444 67.6847 78.669 63.3343L69.7249 44.5441Z" fill="#4E000A"/>
<path id="Vector_4" d="M16.8166 63.8863L12.3448 73.2882C10.0682 78.0698 11.7787 83.9562 16.4662 86.448C21.4366 89.0878 27.5518 87.0273 29.9494 82.0027L34.0307 73.423C27.7282 71.391 21.8815 68.1521 16.8166 63.8863Z" fill="#1A007F"/>
<path id="Vector_5" d="M87.4776 24.0167C86.2129 23.7635 84.9107 23.7619 83.6453 24.0121C82.38 24.2622 81.1764 24.7592 80.1032 25.4747C79.03 26.1902 78.1083 27.11 77.3907 28.1818C76.6731 29.2536 76.1736 30.4562 75.9209 31.721C74.978 36.4359 72.769 40.8265 69.7249 44.5577L78.6553 63.3613C86.8987 56.2089 92.9866 46.4706 95.169 35.5734C96.2331 30.2394 92.7846 25.0671 87.4776 24.0167Z" fill="#FF9396"/>
<path id="Vector_6" d="M53.0763 55.239C51.1638 55.6968 49.2107 55.9394 47.2576 55.9394C45.7357 55.9394 44.1599 55.7644 42.5837 55.4277C36.0509 54.0402 29.4779 49.9991 25.7603 45.0831C24.8306 43.8573 24.0767 42.5777 23.5513 41.271C21.5173 36.2468 15.7927 33.8226 10.7685 35.8429C5.74428 37.8769 3.32045 43.6015 5.34037 48.6253C7.6435 54.3362 11.7115 59.5761 16.8165 63.8862C21.8765 68.1517 27.7187 71.3909 34.0169 73.423C38.3408 74.8101 42.8259 75.578 47.2443 75.578C52.147 75.578 56.9826 74.7292 61.5892 73.1804L53.0763 55.239Z" fill="#002DC8"/>
<path id="Vector_7" d="M83.3694 73.2476L78.6553 63.3343L69.7248 44.5441L69.7116 44.5577C69.7116 44.5577 69.7116 44.5441 69.7248 44.5441L56.7405 17.2277C55.9434 15.5518 54.6878 14.136 53.1191 13.1444C51.5505 12.1527 49.733 11.6258 47.8772 11.6245C44.092 11.6245 40.644 13.8066 39.0143 17.2281L25.7737 45.0831C29.4913 49.9992 36.0643 54.0402 42.5971 55.4277L46.8803 46.43C47.2846 45.5812 48.4967 45.5812 48.901 46.43L53.0901 55.239H53.117H53.0897L61.6163 73.1804L65.8053 81.9894C66.6018 83.6685 67.859 85.0868 69.4305 86.0788C71.002 87.0709 72.823 87.596 74.6815 87.5929C75.5573 87.5929 76.4327 87.4718 77.2948 87.2292C83.208 85.5992 86.0096 78.7972 83.3694 73.2476Z" fill="#FF536A"/>
</g>
</svg>
