<svg width="100" height="100" viewBox="0 0 100 100" fill="none" xmlns="http://www.w3.org/2000/svg">
<g id="blueprintjs">
<g id="blueprintjs_2">
<path id="Vector" d="M71.5312 37.813L92.9375 50.4692V75.4692L71.5312 87.813L49.9688 75.4692V50.4692L71.5312 37.813Z" fill="#00B46F"/>
<path id="Vector_2" d="M49.9688 0L71.5312 12.8125V37.8125L49.9688 50L28.4062 37.8125V12.8125L49.9688 0Z" fill="#2294D9"/>
<path id="Vector_3" d="M71.5312 12.813L92.9375 25.4692V50.4692L71.5312 62.813L49.9688 50.4692V25.4692L71.5312 12.813Z" fill="#2294D9"/>
<path id="Vector_4" d="M28.4063 12.813L49.9688 25.4692V50.4692L28.4063 62.813L7 50.4692V25.4692L28.4063 12.813Z" fill="#F85551"/>
<path id="Vector_5" d="M28.4063 37.813L49.9688 50.4692V75.4692L28.4063 87.813L7 75.4692V50.4692L28.4063 37.813Z" fill="#F85551"/>
<path id="Vector_6" d="M49.9688 50L71.5312 62.8125V87.8125L49.9688 100L28.4062 87.8125V62.8125L49.9688 50Z" fill="#00B46F"/>
<path id="Vector_7" d="M71.5312 12.8125L49.9687 25.4687L28.4062 12.8125L49.9687 0L71.5312 12.8125ZM92.9375 25.4687L71.375 38.2812L49.9687 25.4687L71.5312 12.6563L92.9375 25.4687Z" fill="#30B2E9"/>
<path id="Vector_8" d="M49.9688 75V50L28.4062 62.8125V87.8125L49.9688 75Z" fill="#00AB64"/>
<path id="Vector_9" d="M71.5312 62.8125L49.9688 75L28.4062 62.8125L49.9688 50L71.5312 62.8125Z" fill="#00CE8E"/>
<path id="Vector_10" d="M49.9688 75L28.4062 62.8125L49.9688 50V75Z" fill="#00C783"/>
<path id="Vector_11" d="M49.9688 25.4688L28.4062 12.8125L49.9688 0V25.4688Z" fill="#2CAEE7"/>
<path id="Vector_12" d="M49.9688 25.4692L28.4063 38.2817L7 25.4692L28.4063 12.813L49.9688 25.4692Z" fill="#FB716C"/>
<path id="Vector_13" d="M92.9375 50.4687L71.5312 62.8125L49.9688 50L71.5312 38.2812L92.9375 50.4687Z" fill="#1F8ED6"/>
<path id="Vector_14" d="M28.0938 87.5L7 75.3125L28.0938 62.5V87.5Z" fill="#F64743"/>
<path id="Vector_15" d="M28.4062 38.2817V12.813L49.9688 25.4692V50.0005L28.4062 38.2817Z" fill="#F96560"/>
<path id="Vector_16" d="M49.9688 49.9995V25.4683L28.4062 38.2808V62.812L49.9688 49.9995Z" fill="#B71D1D"/>
<path id="Vector_17" d="M49.9688 49.9995L28.4062 38.2808L49.9688 25.4683V49.9995Z" fill="#B21A1A"/>
<path id="Vector_18" d="M92.9375 75.4683L71.5312 62.812L92.9375 50.4683V75.4683Z" fill="#10161A" fill-opacity="0.2"/>
<path id="Vector_19" d="M71.5312 87.812V62.812L49.9688 74.9995V99.9995L71.5312 87.812ZM92.9375 75.4683V50.4683L71.375 62.6558V87.6558L92.9375 75.4683Z" fill="#007233"/>
<path id="Vector_20" d="M92.9375 75.4683L71.5312 62.812L92.9375 50.4683V75.4683Z" fill="#00682C"/>
<path id="Vector_21" d="M92.9375 50.4683V25.4683L71.5312 38.2808V62.812L92.9375 50.4683Z" fill="#0759BA"/>
<path id="Vector_22" d="M92.9375 50.4683L71.5312 38.2808L92.9375 25.4683V50.4683Z" fill="#0860BF"/>
<path id="Vector_23" opacity="0.78" d="M7 25.4683L28.5625 37.6558L49.9688 25.4683L29.0312 38.437L28.5625 62.6558L28.0938 38.437L7 25.4683Z" fill="#FEBCB7"/>
<path id="Vector_24" opacity="0.78" d="M49.9688 25.4683L71.5312 37.812L92.9375 25.4683L72 38.437L71.5312 62.812L70.9063 38.437L49.9688 25.4683Z" fill="#4EDCF8"/>
<path id="Vector_25" opacity="0.78" d="M28.4062 62.813L49.9688 74.5317L71.5312 62.813L50.5938 75.313L49.9688 100L49.5 75.313L28.4062 62.813Z" fill="#00F3C9"/>
</g>
</g>
</svg>
