<svg width="100" height="100" viewBox="0 0 100 100" fill="none" xmlns="http://www.w3.org/2000/svg">
<g id="cassandradb">
<g id="cassandradb_2">
<path id="path2838" d="M79.027 41.1319C79.7362 49.3935 66.7345 57.2566 49.9875 58.6934C33.2405 60.1301 19.0894 54.5962 18.3811 46.335C17.6719 38.0721 30.6736 30.2095 47.4206 28.7727C64.1676 27.3364 78.3187 32.869 79.027 41.1319Z" fill="#BBE6FB"/>
<path id="path2862" opacity="0.4" d="M47.9122 29.7417C41.5239 29.6378 34.0486 32.1742 28.4864 34.5494C27.9074 36.2177 27.5958 37.992 27.5958 39.8313C27.5958 49.6313 36.4448 57.5768 47.361 57.5768C58.2772 57.5768 67.1262 49.6313 67.1262 39.8313C67.1262 36.7299 66.2379 33.816 64.6802 31.2792C60.2302 30.5874 54.1097 29.8424 47.9122 29.7417Z" fill="white"/>
<path id="path2874" d="M47.3608 29.7399C43.8241 29.524 37.7282 31.3692 32.6451 33.2098C31.8728 35.0325 31.4438 37.0272 31.4438 39.1203C31.4438 47.7069 39.229 54.6678 47.4646 54.6678C55.6461 54.6678 62.8846 47.6957 63.4854 39.1203C63.6806 36.3278 62.7194 33.6965 61.3847 31.4278C56.1148 30.4997 50.5222 29.9328 47.3608 29.7399Z" fill="white"/>
<path id="path2886" d="M38.285 37.9929C38.7189 37.032 39.3761 36.5615 40.0128 35.756C39.9421 35.5653 39.7871 34.9416 39.7871 34.7253C39.7871 33.76 40.5702 32.9765 41.536 32.9765C41.7639 32.9765 41.9815 33.0217 42.1807 33.1009C45.0753 30.895 48.886 29.9332 52.7154 30.7893C53.0651 30.8681 53.4081 30.9635 53.7448 31.0682C49.9601 30.5435 45.6941 31.884 42.7923 34.2261C42.881 34.4352 43.1268 35.0329 43.1268 35.2733C43.1268 36.2391 42.5017 36.4742 41.536 36.4742C41.3166 36.4742 41.1071 36.4321 40.9132 36.3582C40.2577 37.2384 39.4545 38.9152 39.0614 39.9633C40.666 41.3988 42.1158 41.919 44.0052 42.6251C44.0003 42.5351 44.0702 42.4518 44.0702 42.3601C44.0702 39.4485 46.6334 37.0822 49.5455 37.0822C52.1549 37.0822 54.3156 38.9797 54.7374 41.4691C56.0394 40.6408 57.2984 40.0059 58.2579 38.7782C58.0341 38.5051 57.7927 37.7318 57.7927 37.3513C57.7927 36.4751 58.5037 35.7645 59.3799 35.7645C59.504 35.7645 59.6231 35.7824 59.739 35.8093C60.2262 34.8081 60.5938 33.747 60.8288 32.6528C56.2754 29.2818 47.4653 29.7416 47.4653 29.7416C47.4653 29.7416 40.4547 29.3758 35.7087 31.6888C36.0253 33.9772 36.9382 36.1527 38.285 37.9929Z" fill="white"/>
<path id="path2890" d="M60.0486 36.6795C60.3706 36.9696 60.5461 37.2244 60.6844 37.4724C61.1102 38.2381 60.2559 38.9388 59.3797 38.9388C59.2906 38.9388 59.2047 38.9267 59.1191 38.9124C58.1319 40.4552 56.4027 42.4338 54.8666 43.4295C57.2221 43.8155 59.4433 44.7589 61.211 46.2167C62.4982 43.9104 63.4854 40.5802 63.4854 37.7514C63.4854 35.5982 62.5349 34.02 61.0999 32.8621C61.0247 34.0155 60.4091 35.6287 60.0486 36.6795Z" fill="white"/>
<path id="path2894" d="M40.9276 51.2867C41.7125 49.1192 43.6431 47.4398 45.4694 45.9622C45.2021 45.5964 44.8014 44.6907 44.6344 44.2617C42.4069 43.5843 40.436 42.3163 38.9074 40.6378C38.8962 40.6866 38.8824 40.7341 38.8707 40.7829C38.5828 42.0728 38.53 43.3654 38.6733 44.6262C39.7398 44.825 40.547 45.7594 40.547 46.8837C40.547 47.5503 39.9627 48.5166 39.5092 48.937C40.0021 50.0008 40.3384 50.5139 40.9276 51.2867Z" fill="white"/>
<path id="path2898" d="M40.7894 53.1062C39.8532 52.1754 39.2058 50.3186 38.5982 49.1527C38.4845 49.1702 38.368 49.1823 38.2489 49.1823C36.9792 49.1823 35.649 48.1167 35.9498 46.8836C36.1164 46.2013 36.5874 45.7549 37.3544 45.3824C37.1798 43.9689 37.1323 41.9371 37.4605 40.4676C37.5545 40.0472 37.7538 39.8502 37.8858 39.4499C36.4849 37.3997 35.5796 34.7089 35.5796 32.039C35.5796 31.9414 35.5845 31.8452 35.5867 31.7485C33.2191 32.9358 31.4438 34.8065 31.4438 37.7512C31.4438 44.2648 35.1954 50.6544 40.7773 53.1591C40.7813 53.1416 40.7849 53.1237 40.7894 53.1062Z" fill="white"/>
<path id="path2902" d="M54.5151 44.1014C53.7938 46.153 51.8434 47.6264 49.5452 47.6264C48.3158 47.6264 47.1879 47.2024 46.2915 46.4977C44.4438 47.9367 42.7674 50.4646 41.9154 52.6576C42.2978 53.0691 42.5642 53.4076 42.9931 53.7725C44.2857 54.1092 46.0659 53.7725 47.4651 53.7725C53.0931 53.7725 58.0777 51.2688 60.9356 46.8783C59.0354 45.5624 56.794 44.3101 54.5151 44.1014Z" fill="white"/>
<path id="path2914" d="M38.1406 38.754C38.5744 37.7931 39.1184 36.9039 39.7547 36.0985C39.6839 35.9082 39.6427 35.7027 39.6427 35.4864C39.6427 34.5211 40.4258 33.7376 41.3916 33.7376C41.6195 33.7376 41.8371 33.7828 42.0363 33.8621C44.9309 31.6561 48.7416 30.6943 52.571 31.5504C52.9207 31.6292 53.2637 31.7246 53.6004 31.8293C49.8157 31.3046 45.9052 32.4647 43.0034 34.8072C43.0921 35.0159 43.1404 35.246 43.1404 35.4864C43.1404 36.4522 42.3573 37.2353 41.3916 37.2353C41.1722 37.2353 40.9627 37.1932 40.7688 37.1193C40.1133 37.9996 39.5774 38.972 39.1843 40.0206C40.5624 41.5058 42.2539 42.6802 44.1429 43.3862C44.1384 43.2962 44.129 43.2071 44.129 43.1154C44.129 40.2037 46.489 37.8433 49.4011 37.8433C52.0105 37.8433 54.1712 39.7408 54.593 42.2302C55.895 41.4019 57.0519 40.3381 58.011 39.1104C57.7871 38.8373 57.6483 38.493 57.6483 38.1124C57.6483 37.2362 58.3593 36.5256 59.2355 36.5256C59.3596 36.5256 59.4787 36.5435 59.5946 36.5704C60.0818 35.5693 60.4493 34.5081 60.6844 33.4139C56.131 30.0429 47.3209 30.5027 47.3209 30.5027C47.3209 30.5027 40.3103 30.1369 35.5643 32.4499C35.8809 34.7383 36.7938 36.9138 38.1406 38.754Z" fill="#1287B1"/>
<path id="path2918" d="M60.2943 36.939C60.6162 37.2292 60.8226 37.6451 60.8226 38.1126C60.8226 38.9888 60.1116 39.6998 59.2354 39.6998C59.1463 39.6998 59.0604 39.6877 58.9748 39.6734C57.9876 41.2162 56.6793 42.5317 55.1427 43.5274C57.4136 43.8825 59.5511 44.846 61.3183 46.3038C62.6055 43.9976 63.3411 41.3412 63.3411 38.5124C63.3411 36.3592 62.3906 34.781 60.9556 33.6231C60.8804 34.7765 60.6547 35.8882 60.2943 36.939Z" fill="#1287B1"/>
<path id="path2922" d="M41.1698 51.8075C41.9546 49.64 43.3184 47.6951 45.1447 46.218C44.8774 45.8517 44.6572 45.4519 44.4902 45.023C42.2622 44.3456 40.2918 43.0776 38.7632 41.399C38.752 41.4478 38.7377 41.4953 38.7265 41.5441C38.4381 42.834 38.3853 44.1266 38.529 45.3874C39.5951 45.5862 40.4028 46.5207 40.4028 47.6449C40.4028 48.3116 40.1167 48.9111 39.6631 49.3315C40.0746 50.2037 40.5806 51.0347 41.1698 51.8075Z" fill="#1287B1"/>
<path id="path2926" d="M40.7832 53.0799C39.847 52.149 39.0612 51.0798 38.4541 49.9144C38.3399 49.9318 38.2235 49.9435 38.1049 49.9435C36.8351 49.9435 35.8058 48.9141 35.8058 47.6448C35.8058 46.735 36.3359 45.9506 37.1028 45.5781C36.9287 44.165 36.9878 42.6983 37.3164 41.2288C37.4104 40.8088 37.525 40.3987 37.6571 39.998C36.2562 37.9483 35.4355 35.4701 35.4355 32.8002C35.4355 32.7026 35.44 32.6064 35.4422 32.5101C33.0746 33.697 31.2993 35.5681 31.2993 38.5124C31.2993 45.0265 35.1892 50.6281 40.7711 53.1327C40.7751 53.1152 40.7787 53.0973 40.7832 53.0799Z" fill="#1287B1"/>
<path id="path2930" d="M54.3708 44.8627C53.6495 46.9142 51.6992 48.3877 49.401 48.3877C48.1715 48.3877 47.0437 47.9637 46.1473 47.259C44.2995 48.698 42.9048 50.6595 42.0532 52.853C42.4351 53.2644 42.8435 53.6522 43.2724 54.0166C44.5655 54.3533 45.9216 54.5338 47.3208 54.5338C52.9488 54.5338 57.8967 51.628 60.7546 47.2379C58.8544 45.9216 56.6498 45.0714 54.3708 44.8627Z" fill="#1287B1"/>
<path id="path2954" d="M54.5557 43.5032L59.4266 42.3414L54.5374 42.092L58.5164 39.051L54.0014 40.6695L57.0697 36.4174L52.8319 39.2341L54.3135 34.2567L51.4032 38.3592L51.337 33.1749L49.422 37.7929L47.8254 33.1199L47.9118 38.6247L45.1524 33.6903L46.6456 38.9297L42.1696 35.6746L45.6758 40.0803L40.119 38.0369L44.5046 41.2816L38.881 41.4544L44.6308 42.9382L38.8761 44.1825L44.5565 44.5944L39.7662 47.6618L44.6989 45.8735L41.2764 50.2081L45.6011 46.7202L44.0438 52.5367L47.3826 47.8033L46.9147 53.3937L48.81 48.3258L50.4231 53.6525L50.8154 48.3097L53.2098 52.868L51.795 47.6542L56.1796 51.0507L53.3491 46.7202L58.1595 48.5944L54.4814 44.9799L59.4136 45.3676L54.5557 43.5032Z" fill="white"/>
<path id="path2978" opacity="0.3" d="M2.69958 52.8238C17.8061 37.7177 29.8712 33.0541 40.8209 30.9252C42.2698 30.6435 42.5438 27.4776 42.5438 27.4776C42.5438 27.4776 42.7466 29.8094 43.7607 30.1134C44.7744 30.4179 46.0921 26.4635 46.0921 26.4635C46.0921 26.4635 44.8756 30.0122 46.0921 30.2151C47.309 30.4179 49.5392 26.768 49.5392 26.768C49.5392 26.768 48.6272 29.9106 49.2356 30.1134C49.8432 30.3162 52.8847 25.5515 52.8847 25.5515C52.8847 25.5515 51.0597 28.6941 52.7835 28.9986C54.5077 29.3026 57.0222 26.8535 57.0222 26.8535C57.0222 26.8535 55.045 29.0944 55.9261 29.4038C59.6777 30.7223 62.7133 25.8465 62.7133 25.8465C62.7133 25.8465 62.0099 27.9844 60.1849 30.3162C64.1384 31.3299 67.0751 25.3737 67.0751 25.3737L64.1384 31.3299C65.6594 32.1417 71.7432 25.1458 71.7432 25.1458C71.7432 25.1458 68.6001 30.6207 66.7751 31.7356C67.7888 32.5469 71.4387 29.3026 71.4387 29.3026C71.4387 29.3026 68.4985 32.952 69.6138 33.1549C71.2359 34.473 77.2172 26.3623 77.2172 26.3623C77.2172 26.3623 74.8858 31.1271 71.4387 34.8786C74.3199 36.3199 81.476 27.072 81.476 27.072C81.476 27.072 81.2732 30.0122 76.1023 34.6758C79.9551 34.169 84.9231 26.8691 84.9231 26.8691C84.9231 26.8691 83.0981 32.344 78.7381 36.1963C82.521 35.8028 88.5721 26.4635 88.5721 26.4635C88.5721 26.4635 86.2408 32.952 81.476 36.7036C86.7481 37.8695 94.3519 30.0122 94.3519 30.0122C94.3519 30.0122 91.3611 35.5887 87.4573 37.8695C91.8173 39.5422 97.799 32.648 97.799 32.648C97.799 32.648 91.8173 41.8745 82.2873 41.4688C79.1603 41.3359 69.702 31.9823 49.438 32.7497C22.6725 33.7638 16.9953 45.1188 2.69958 52.8238Z" fill="white"/>
<path id="path2982" d="M3.31873 51.6766C18.4252 36.5705 30.4899 31.9074 41.4396 29.7779C42.8889 29.4963 43.163 26.3308 43.163 26.3308C43.163 26.3308 43.3653 28.6631 44.3799 28.9667C45.3936 29.2707 46.7112 25.3172 46.7112 25.3172C46.7112 25.3172 45.4947 28.8659 46.7112 29.0683C47.9282 29.2707 50.1583 25.6212 50.1583 25.6212C50.1583 25.6212 49.2463 28.7638 49.8539 28.9667C50.4623 29.1695 53.5038 24.4042 53.5038 24.4042C53.5038 24.4042 51.6788 27.5473 53.4026 27.8513C55.1259 28.1558 57.6413 25.7067 57.6413 25.7067C57.6413 25.7067 55.6641 27.9476 56.5452 28.257C60.2968 29.5751 63.3315 24.6998 63.3315 24.6998C63.3315 24.6998 62.6282 26.8377 60.8041 29.1695C64.7576 30.1836 67.6943 24.2265 67.6943 24.2265L64.7576 30.1836C66.2785 30.9944 72.3614 23.9995 72.3614 23.9995C72.3614 23.9995 69.2192 29.4735 67.3943 30.5888C68.4079 31.4001 72.0579 28.1558 72.0579 28.1558C72.0579 28.1558 69.1176 31.8057 70.2329 32.0081C71.855 33.3267 77.8363 25.2155 77.8363 25.2155C77.8363 25.2155 75.5041 29.9808 72.0579 33.7319C74.939 35.1736 82.0952 25.9252 82.0952 25.9252C82.0952 25.9252 81.8923 28.8659 76.7215 33.5295C80.5742 33.0222 85.5422 25.7224 85.5422 25.7224C85.5422 25.7224 83.7173 31.1973 79.3573 35.05C83.1402 34.6564 89.1913 25.3172 89.1913 25.3172C89.1913 25.3172 86.8599 31.8057 82.0952 35.5568C87.3672 36.7227 94.9711 28.8659 94.9711 28.8659C94.9711 28.8659 91.9802 34.4415 88.0764 36.7227C92.4364 38.3955 98.4182 31.5013 98.4182 31.5013C98.4182 31.5013 92.4364 40.7277 82.9055 40.3221C79.7795 40.1886 70.3211 30.835 50.0567 31.6029C23.2917 32.6166 17.614 43.9715 3.31873 51.6766Z" fill="white"/>
<path id="path3006" opacity="0.3" d="M2.30371 54.476C10.2877 58.481 17.588 53.868 26.7885 56.4608C33.7834 58.4327 42.3002 60.8634 53.8575 59.1902C65.4153 57.5179 75.3008 52.4993 80.0159 43.5263C81.4858 39.5222 87.467 44.4392 87.467 44.4392C87.467 44.4392 83.1079 42.6143 83.2096 43.4761C83.3107 44.3376 89.7487 47.3284 89.7487 47.3284C89.7487 47.3284 83.9188 45.5035 84.2738 46.8722C84.6289 48.2409 91.5728 53.7158 91.5728 53.7158C91.5728 53.7158 83.7159 47.7341 83.0573 48.5449C82.3978 49.3562 86.4028 52.6515 86.4028 52.6515C86.4028 52.6515 79.762 48.5449 77.4298 49.756C75.7526 50.626 84.3244 56.2509 84.3244 56.2509C84.3244 56.2509 78.7479 51.992 77.4298 53.1073C76.1121 54.2231 83.7159 63.3474 83.7159 63.3474C83.7159 63.3474 75.0975 54.0198 74.2365 54.476C73.3742 54.9323 76.6185 59.3935 76.6185 59.3935C76.6185 59.3935 72.3605 54.7295 71.1951 55.5408C70.0292 56.3521 77.278 68.4673 77.278 68.4673C77.278 68.4673 69.4207 56.048 66.1764 58.1255C71.2712 69.3036 69.3701 70.9007 69.3701 70.9007C69.3701 70.9007 68.72 59.4969 62.3743 59.7987C59.1806 59.9509 63.8948 68.315 63.8948 68.315C63.8948 68.315 59.5558 60.6758 56.6661 60.828C61.9919 70.907 60.0935 75.0064 60.0935 75.0064C60.0935 75.0064 60.9742 66.3983 53.7509 61.608C56.4879 64.0405 52.0334 75.0064 52.0334 75.0064C52.0334 75.0064 55.952 58.8473 49.1433 61.9281C48.0674 62.4139 49.0672 69.9882 49.0672 69.9882C49.0672 69.9882 47.6985 61.3192 45.6461 61.7759C44.4493 62.0414 38.0418 73.7899 38.0418 73.7899C38.0418 73.7899 43.2888 61.0913 41.6921 61.6237C40.5289 62.0118 38.3462 67.2508 38.3462 67.2508C38.3462 67.2508 39.4105 62.0799 38.3462 61.7759C37.282 61.4714 31.3504 67.2508 31.3504 67.2508C31.3504 67.2508 35.761 62.0799 35.0003 61.0152C33.8479 59.402 32.497 59.3263 30.8942 59.9509C28.5619 60.8598 25.4197 65.1214 25.4197 65.1214C25.4197 65.1214 28.5521 60.8065 28.0045 59.1902C27.1256 56.5934 18.1199 64.2089 18.1199 64.2089C18.1199 64.2089 23.4425 59.1902 22.226 58.1255C21.0096 57.0613 14.4037 57.3903 12.341 57.3845C6.25809 57.3657 4.15016 55.9388 2.30371 54.476Z" fill="white"/>
<path id="path3010" d="M2 53.5634C9.98398 57.5684 17.2838 52.9554 26.4843 55.5486C33.4792 57.5196 41.9965 59.9508 53.5542 58.2776C65.112 56.6048 74.9966 51.5862 79.7117 42.6141C81.1816 38.6096 87.1629 43.5261 87.1629 43.5261C87.1629 43.5261 82.8037 41.7016 82.9054 42.5635C83.0066 43.4249 89.4445 46.4158 89.4445 46.4158C89.4445 46.4158 83.6146 44.5913 83.9697 45.96C84.3247 47.3283 91.2695 52.8031 91.2695 52.8031C91.2695 52.8031 83.4118 46.821 82.7532 47.6327C82.0945 48.4436 86.0991 51.7384 86.0991 51.7384C86.0991 51.7384 79.4578 47.6327 77.1261 48.8429C75.4484 49.7133 84.0202 55.3378 84.0202 55.3378C84.0202 55.3378 78.4437 51.0794 77.1261 52.1947C75.8079 53.3104 83.4127 62.4348 83.4127 62.4348C83.4127 62.4348 74.7938 53.1072 73.9324 53.5634C73.0709 54.0201 76.3152 58.4804 76.3152 58.4804C76.3152 58.4804 72.0564 53.8168 70.8909 54.6281C69.725 55.4389 76.9738 67.5546 76.9738 67.5546C76.9738 67.5546 69.1165 55.1349 65.8723 57.2133C70.967 68.391 69.0659 69.988 69.0659 69.988C69.0659 69.988 68.4158 58.5843 62.0701 58.8865C58.8764 59.0387 63.5906 67.4024 63.5906 67.4024C63.5906 67.4024 59.2516 59.7627 56.3624 59.9149C61.6887 69.9943 59.7894 74.0938 59.7894 74.0938C59.7894 74.0938 60.6701 65.4852 53.4468 60.6949C56.1838 63.1279 51.7293 74.0938 51.7293 74.0938C51.7293 74.0938 55.6487 57.9346 48.8401 61.0155C47.7642 61.5017 48.7639 69.0756 48.7639 69.0756C48.7639 69.0756 47.3943 60.407 45.3424 60.8632C44.1451 61.1287 37.7376 72.8773 37.7376 72.8773C37.7376 72.8773 42.9846 60.1786 41.388 60.7115C40.2248 61.0987 38.0421 66.3377 38.0421 66.3377C38.0421 66.3377 39.1068 61.1672 38.0421 60.8632C36.9778 60.5592 31.0467 66.3377 31.0467 66.3377C31.0467 66.3377 35.4573 61.1672 34.6962 60.1025C33.5437 58.4894 32.1929 58.4141 30.5905 59.0387C28.2578 59.9472 25.1156 64.2087 25.1156 64.2087C25.1156 64.2087 28.2479 59.8934 27.7008 58.2776C26.8214 55.6812 17.8162 63.2962 17.8162 63.2962C17.8162 63.2962 23.1388 58.2776 21.9219 57.2133C20.7054 56.1486 14.0995 56.4781 12.0368 56.4719C5.95393 56.4526 3.84645 55.0261 2 53.5634Z" fill="white"/>
</g>
</g>
</svg>
