<svg width="100" height="100" viewBox="0 0 100 100" fill="none" xmlns="http://www.w3.org/2000/svg">
<g id="scala">
<g id="scala_2">
<path id="Vector" fill-rule="evenodd" clip-rule="evenodd" d="M18.0933 37.2108C18.9655 38.4131 26.3209 40.681 37.2927 43.0432C48.2644 45.1461 59.6747 53.4491 68.5482 50.8889C74.5504 49.1538 81.0618 33.6934 81.0618 31.3972V31.1614C81.0618 29.5583 79.8595 28.2712 77.8179 27.2009C69.4488 22.9244 67.8646 21.3496 64.7621 22.203C48.6558 26.6492 20.2197 24.3766 18.0933 37.2108Z" fill="#380D09"/>
<path id="Vector_2" fill-rule="evenodd" clip-rule="evenodd" d="M18.0933 68.603C18.9655 69.8241 26.3209 72.0732 37.2927 74.4401C49.5516 76.675 60.2122 83.9596 69.0905 81.3947C75.0926 79.6596 81.0618 65.0903 81.0618 62.7894V62.5631C81.0618 60.9647 79.8595 59.6728 77.8179 58.6072C71.4338 55.2124 62.9987 51.4734 59.901 52.3268C43.7663 56.7636 22.2 57.7396 18.0933 68.603Z" fill="#380D09"/>
<path id="Vector_3" fill-rule="evenodd" clip-rule="evenodd" d="M18.0036 43.9578V44.1841C17.9988 44.1087 17.9988 44.0331 18.0036 43.9578Z" fill="#555555"/>
<path id="Vector_4" fill-rule="evenodd" clip-rule="evenodd" d="M69.0669 6.06818C54.2336 10.3541 30.7012 12.7729 18.0226 12.7729V36.9843C18.0266 37.0676 18.0581 37.1471 18.1122 37.2106C26.7642 37.2106 53.4745 34.3816 69.5903 29.9495C72.4009 29.2342 75.1568 28.3187 77.8368 27.2101C79.8077 26.3237 81.0807 25.3902 81.0807 24.4189V0C81.0618 2.30091 75.0691 4.33778 69.0669 6.06818Z" fill="#DE3423"/>
<path id="Vector_5" fill-rule="evenodd" clip-rule="evenodd" d="M69.0669 37.4652C60.1886 40.0254 48.2079 41.9302 37.2927 43.043C29.9656 43.7927 23.1195 44.184 18.0226 44.184V68.3765C18.0266 68.4598 18.0581 68.5394 18.1122 68.6029C26.7642 68.6029 53.4745 65.7739 69.5903 61.3465C72.4003 60.6291 75.156 59.7136 77.8368 58.6071C79.8077 57.716 81.0807 56.7871 81.0807 55.8158V31.397C81.0618 33.6932 75.0691 35.73 69.0669 37.4652Z" fill="#DE3423"/>
<path id="Vector_6" fill-rule="evenodd" clip-rule="evenodd" d="M69.0669 68.8811C60.1886 71.4413 48.2078 73.3414 37.2926 74.4589C29.9561 75.2086 23.1006 75.5999 18.0037 75.5999V99.9999C26.5661 99.9999 53.4131 97.1945 69.5714 92.7436C75.5264 91.1028 81.0618 89.2356 81.0618 87.2082V62.7893C81.0618 65.1091 75.069 67.1271 69.0669 68.8811Z" fill="#DE3423"/>
</g>
</g>
</svg>
