<svg width="100" height="100" viewBox="0 0 100 100" fill="none" xmlns="http://www.w3.org/2000/svg">
<g clip-path="url(#clip0_868_39584)">
<path fill-rule="evenodd" clip-rule="evenodd" d="M44.4987 0.0728903C53.6852 -0.140746 63.8989 0.0456177 73.1353 1.58198C84.2581 3.43198 93.4946 11.6229 97.1309 22.1865C98.0037 24.7319 98.6673 28.291 99.131 32.8501C100.426 45.7819 100.349 59.4501 98.3855 72.8682C96.4582 85.9955 85.4309 96.5636 72.4308 98.55C68.8398 99.0955 63.8443 99.5818 57.4579 100H43.1396C36.3669 99.6591 30.8804 99.1364 26.6804 98.4227C21.3804 97.5227 16.5258 95.1818 12.1121 91.3909C6.25753 86.3637 2.73478 80.0137 1.55295 72.3546C1.07925 69.1087 0.715408 65.8478 0.462034 62.5773C-0.101606 55.7364 -0.0879696 47.5683 0.175669 41.4865C0.37567 36.791 0.83931 32.0637 1.57113 27.3001C3.23478 16.4683 10.6439 7.37742 20.9349 3.24107C23.8758 2.05925 27.7622 1.24107 32.5805 0.804707C36.5421 0.424199 40.5157 0.180115 44.4942 0.0728903H44.4987ZM42.5624 11.4229C38.0032 10.1501 33.6305 9.65015 29.6395 9.96833C27.6311 10.1125 25.6472 10.4971 23.7304 11.1138C17.0713 13.2956 12.5167 18.2501 10.7712 25.2001C9.80301 29.041 9.72574 33.4001 10.5303 38.0683C11.3167 42.6228 12.9349 47.4001 15.3121 52.1637C20.2758 62.1273 28.285 71.5273 37.776 78.5409C42.0033 81.6637 46.426 84.2409 50.867 86.1637C55.9761 88.3727 61.017 89.6818 65.7216 90.0273C69.5762 90.3 73.1535 89.9227 76.3217 88.9C81.0399 87.3773 84.7399 84.4591 87.1218 80.3818C88.9309 77.2909 89.9536 73.591 90.1354 69.45L90.1536 68.991C90.1739 68.3108 90.1739 67.6302 90.1536 66.9501L90.1218 66.3637C89.9173 62.3682 88.9991 58.1092 87.3991 53.7501C85.5874 48.8988 83.1892 44.2874 80.2581 40.0183C74.3339 31.3409 66.6989 23.9658 57.8216 18.3456C52.7852 15.1865 47.6033 12.8365 42.5624 11.4229Z" fill="url(#paint0_radial_868_39584)"/>
</g>
<defs>
<radialGradient id="paint0_radial_868_39584" cx="0" cy="0" r="1" gradientTransform="matrix(-50.0002 47.7274 -69.7884 -73.1105 49.9988 50.0001)" gradientUnits="userSpaceOnUse">
<stop offset="0.413" stop-color="#CBFF00"/>
<stop offset="0.678" stop-color="#7EF426"/>
</radialGradient>
<clipPath id="clip0_868_39584">
<rect width="100" height="100" fill="white"/>
</clipPath>
</defs>
</svg>
