<svg width="100" height="100" viewBox="0 0 100 100" fill="none" xmlns="http://www.w3.org/2000/svg">
<g clip-path="url(#clip0_867_4690)">
<path d="M46.9088 0.800112C47.8543 0.274732 48.9182 -0.000976562 49.9998 -0.000976562C51.0815 -0.000976562 52.1453 0.274732 53.0908 0.800112L92.3645 22.8143C94.2782 23.8779 95.4555 25.8598 95.4555 28.0008V72.0018C95.4555 74.1473 94.2782 76.1292 92.3645 77.1974L53.0908 99.1979C52.1453 99.7233 51.0815 99.999 49.9998 99.999C48.9182 99.999 47.8543 99.7233 46.9088 99.1979L7.63517 77.1974C6.70308 76.6862 5.92485 75.9347 5.3813 75.021C4.83775 74.1074 4.54871 73.0649 4.54419 72.0018V27.9962C4.54419 25.8553 5.72149 23.8734 7.63517 22.8052L46.9088 0.804658V0.800112ZM80.6369 63.7062V32.8509L50.0089 50.0013L49.9998 84.3249L77.5414 68.8972C78.4728 68.3863 79.2506 67.6356 79.7941 66.7228C80.3376 65.81 80.6316 64.7685 80.6369 63.7062ZM53.0908 17.4232C52.1463 16.8949 51.0821 16.6175 49.9998 16.6175C48.9176 16.6175 47.8534 16.8949 46.9088 17.4232L22.4719 31.119C20.5582 32.1872 19.3809 34.1646 19.3809 36.3101V63.7062C19.3809 65.8426 20.5582 67.8199 22.4719 68.8972L35.1767 76.0156V45.8648C35.1821 47.1305 35.5292 48.3711 36.1813 49.4558C35.497 48.3126 35.1561 46.9965 35.1995 45.6648L35.2177 45.2375L35.3086 44.5557L35.3904 44.1739L35.4677 43.8921L35.6449 43.3602L35.9268 42.7148L36.0859 42.4193L36.4541 41.8284L36.8813 41.2738L37.2632 40.8602L37.6268 40.5193L38.195 40.0647L38.5177 39.8465L39.1268 39.501L65.8093 24.5461L53.0999 17.4278L53.0908 17.4232Z" fill="url(#paint0_linear_867_4690)"/>
<path d="M49.9997 45.8545C49.9997 41.8771 46.6814 38.6543 42.5859 38.6543C41.2166 38.6541 39.8732 39.0265 38.6994 39.7316C38.5767 39.8043 38.4494 39.8816 38.3358 39.9589C38.1448 40.0937 37.9584 40.2346 37.7767 40.3816C37.6767 40.4725 37.5721 40.5543 37.4766 40.6498L37.2585 40.8544L36.9721 41.1589C36.9085 41.2316 36.8448 41.2998 36.7903 41.3771C36.6414 41.5616 36.4989 41.7511 36.363 41.9453L36.1721 42.2589C36.0575 42.4512 35.9513 42.6484 35.8539 42.8499L35.6902 43.218C35.6531 43.3075 35.6198 43.3985 35.5902 43.4908C35.5448 43.6271 35.4993 43.7544 35.463 43.8862L35.3857 44.1681C35.3179 44.4058 35.2723 44.6492 35.2493 44.8954C35.2402 45.009 35.2175 45.1226 35.213 45.2317C35.0769 46.7066 35.4161 48.1863 36.1812 49.4546C37.5539 51.7637 40.0449 53.0546 42.6086 53.0546C43.8677 53.0546 45.145 52.7455 46.3087 52.091L50.0133 50.0137V45.859L49.9997 45.8545Z" fill="#012F8D"/>
</g>
<defs>
<linearGradient id="paint0_linear_867_4690" x1="836.837" y1="7517.7" x2="8605.88" y2="3165.08" gradientUnits="userSpaceOnUse">
<stop stop-color="#0A51C3"/>
<stop offset="1" stop-color="#23A4FB"/>
</linearGradient>
<clipPath id="clip0_867_4690">
<rect width="100" height="100" fill="white"/>
</clipPath>
</defs>
</svg>
