<svg width="100" height="100" viewBox="0 0 100 100" fill="none" xmlns="http://www.w3.org/2000/svg">
<g id="bash">
<g id="bash_2">
<path id="Vector" fill-rule="evenodd" clip-rule="evenodd" d="M87.4283 20.4089L55.8502 1.66511C54.0155 0.575835 51.9213 0.000976563 49.7877 0.000976562C47.654 0.000976563 45.5598 0.575835 43.7252 1.66511L12.1408 20.4089C10.2637 21.5289 8.71036 23.1183 7.6337 25.0207C6.55703 26.9231 5.99407 29.0729 6.00018 31.2589V68.7464C5.98858 70.9272 6.54349 73.0736 7.61059 74.9755C8.67769 76.8775 10.2204 78.4697 12.0877 79.5964L43.6658 98.3401C45.5004 99.4294 47.5947 100.004 49.7283 100.004C51.8619 100.004 53.9562 99.4294 55.7908 98.3401L87.3752 79.5964C89.2425 78.4697 90.7852 76.8775 91.8523 74.9755C92.9194 73.0736 93.4743 70.9272 93.4627 68.7464V31.2589C93.4801 29.0834 92.9337 26.9406 91.8768 25.0391C90.8198 23.1377 89.2883 21.5424 87.4314 20.4089H87.4283ZM62.9689 78.9464V81.6339C62.967 81.7995 62.9236 81.962 62.8429 82.1067C62.7621 82.2513 62.6464 82.3734 62.5064 82.462L60.9064 83.3776C60.6564 83.5089 60.4439 83.3776 60.4439 83.0245V80.3776C59.3144 80.9327 58.0216 81.0582 56.8064 80.7307C56.6127 80.5995 56.5377 80.3495 56.6314 80.1057L57.2033 77.6682C57.251 77.462 57.3626 77.2761 57.5221 77.137C57.5675 77.0919 57.6204 77.0549 57.6783 77.0276C57.7587 76.9962 57.8479 76.9962 57.9283 77.0276C59.0437 77.3271 60.2321 77.1768 61.2377 76.6089C61.952 76.2599 62.5587 75.7242 62.9933 75.0585C63.4279 74.3929 63.6743 73.622 63.7064 72.8276C63.7064 71.4589 62.9564 70.8901 61.1439 70.8745C58.8502 70.8745 56.7689 70.437 56.6752 67.0495C56.7014 65.6034 57.0473 64.181 57.6881 62.8843C58.3289 61.5876 59.2486 60.4488 60.3814 59.5495V56.8245C60.3877 56.6585 60.4328 56.4962 60.5131 56.3507C60.5934 56.2053 60.7067 56.0807 60.8439 55.987L62.3877 55.0057C62.6377 54.8745 62.8502 55.0057 62.8502 55.3682V58.0932C63.7959 57.6633 64.8515 57.5367 65.8721 57.7307C66.0908 57.8557 66.1783 58.1307 66.0721 58.3557L65.5314 60.7714C65.4702 61.0219 65.3161 61.2397 65.1002 61.3807C65.0377 61.4182 64.9439 61.4057 64.8689 61.3807C63.874 61.1629 62.8335 61.3328 61.9596 61.8557C61.3221 62.1307 60.7761 62.5815 60.3854 63.1554C59.9947 63.7292 59.7754 64.4025 59.7533 65.0964C59.7533 66.3307 60.4033 66.7057 62.5877 66.7526C65.5096 66.7526 66.7658 68.0745 66.8002 71.0089C66.7726 72.5262 66.4151 74.0194 65.7524 75.3847C65.0897 76.75 64.1378 77.9547 62.9627 78.9151L62.9689 78.9464ZM79.5096 74.4151C79.5285 74.5288 79.5157 74.6455 79.4727 74.7524C79.4297 74.8594 79.3581 74.9524 79.2658 75.0214L71.3127 79.8714C71.2377 79.9339 71.1252 79.9432 71.0408 79.8932C70.9564 79.8432 70.9158 79.737 70.9377 79.6432V77.5807C70.9431 77.4705 70.9802 77.3641 71.0445 77.2743C71.1088 77.1845 71.1975 77.1152 71.3002 77.0745L79.1627 72.3651C79.2377 72.3026 79.3502 72.2932 79.4346 72.3432C79.5189 72.3932 79.5596 72.4995 79.5377 72.5932V74.412L79.5096 74.4151ZM85.0252 28.3151L55.1439 46.7714C51.4158 48.9776 48.6752 51.3901 48.6752 55.8776V92.6839C48.6752 95.3714 49.7783 97.0589 51.4314 97.6214C50.885 97.7234 50.331 97.7788 49.7752 97.787C48.0202 97.7831 46.2985 97.3071 44.7908 96.4089L13.2127 77.6682C11.6751 76.7456 10.4047 75.4381 9.52676 73.8746C8.64884 72.3111 8.19376 70.5457 8.20643 68.7526V31.2589C8.19227 29.4634 8.64659 27.6953 9.52453 26.129C10.4025 24.5627 11.6737 23.2525 13.2127 22.3276L44.7908 3.58386C47.8533 1.77136 51.6533 1.77136 54.7158 3.58386L86.2939 22.3276C88.8971 23.9026 90.6689 26.5464 91.1439 29.5151C90.1189 27.287 87.7596 26.7026 85.0127 28.2807H85.0221L85.0252 28.3151Z" fill="white"/>
</g>
</g>
</svg>
